<mxfile host="app.diagrams.net" modified="2022-05-06T08:34:30.127Z" agent="5.0 (Macintosh)" etag="2G3j7ZjkICiWPxCRGJ02" version="17.5.0" type="github">
  <diagram id="mIyqTn-i1IgMBq0rPZ_7" name="Page-1">
    <mxGraphModel dx="946" dy="640" grid="1" gridSize="10" guides="1" tooltips="1" connect="1" arrows="1" fold="1" page="1" pageScale="1" pageWidth="827" pageHeight="1169" background="#DAD2D8" math="0" shadow="0">
      <root>
        <mxCell id="0" />
        <mxCell id="1" parent="0" />
      </root>
    </mxGraphModel>
  </diagram>
</mxfile>
